<svg xmlns="http://www.w3.org/2000/svg" xmlns:xlink="http://www.w3.org/1999/xlink" width="512px" height="512px" viewBox="0 0 512 512" preserveAspectRatio="xMidYMid meet" ><rect id="svgEditorBackground" x="0" y="0" width="512" height="512" style="fill: none; stroke: none;"/><defs id="svgEditorDefs"><linearGradient gradientUnits="objectBoundingBox" id="lgrd2-black-white" spreadMethod="pad" x1="0%" x2="100%" y1="0%" y2="100%"><stop offset="0%" stop-color="#99CC00"/><stop offset="100%" stop-color="white"/></linearGradient><linearGradient gradientUnits="objectBoundingBox" id="lgrd2-peachpuff-sienna-h" spreadMethod="pad" x1="0%" x2="100%" y1="0%" y2="0%"><stop offset="0%" style="stop-color: rgb(153, 204, 0); stop-opacity: 1;"/><stop offset="100%" style="stop-color: white; stop-opacity: 1;"/></linearGradient><linearGradient gradientUnits="objectBoundingBox" id="lgrd2-b" spreadMethod="pad" x1="0" x2="100%" y1="0" y2="0"><stop offset="0%" stop-color="#666666"/><stop offset="100%" stop-color="#FFFFFF"/></linearGradient></defs><rect x="16" y="13" style="fill: url(&quot;#lgrd2-peachpuff-sienna-h&quot;); stroke-width: 1px;" id="e1_rectangle" width="150" height="150" rx="30" ry="30"/><rect x="181" y="13" style="fill: url(&quot;#lgrd2-b&quot;); stroke-width: 1px;" id="e2_rectangle" width="150" height="150" rx="30" ry="30"/><rect x="345" y="13" style="fill: url(&quot;#lgrd2-b&quot;); stroke-width: 1;" id="e3_rectangle" width="150" height="150" rx="30" ry="30"/><rect x="15" y="181" style="fill: url(&quot;#lgrd2-b&quot;); stroke-width: 1px;" id="e4_rectangle" width="150" height="150" rx="30" ry="30"/><rect x="15" y="347" style="fill: url(&quot;#lgrd2-b&quot;); stroke-width: 1px;" id="e5_rectangle" width="150" height="150" rx="30" ry="30"/><rect x="181" y="181" style="stroke: black; stroke-width:2px;fill:white;" id="e6_rectangle" width="150" height="150" rx="30" ry="30"/><rect x="345" y="181" style="fill: url(&quot;#lgrd2-b&quot;); stroke-width: 1px;" id="e7_rectangle" width="150" height="150" rx="30" ry="30"/><rect x="179" y="347" style="fill: url(&quot;#lgrd2-b&quot;); stroke-width: 1px;" id="e8_rectangle" width="150" height="150" rx="30" ry="30"/></svg>